<?xml version="1.0" encoding="utf-8"?>
<!-- Generator: Adobe Illustrator 16.0.3, SVG Export Plug-In . SVG Version: 6.00 Build 0)  -->
<!DOCTYPE svg PUBLIC "-//W3C//DTD SVG 1.1//EN" "http://www.w3.org/Graphics/SVG/1.1/DTD/svg11.dtd">
<svg version="1.1" xmlns="http://www.w3.org/2000/svg" xmlns:xlink="http://www.w3.org/1999/xlink" x="0px" y="0px"
	 width="841.92px" height="595.2px" viewBox="0 0 841.92 595.2" enable-background="new 0 0 841.92 595.2" xml:space="preserve">
<g id="Layer_2">
	<rect y="0.48" fill-rule="evenodd" clip-rule="evenodd" width="842.42" height="595.199"/>
</g>
<g id="woodman_x5F_logo">
	<g id="woodman_x5F_logo_x5F_WB.psd">
		<g>
			<path display="none" fill-rule="evenodd" clip-rule="evenodd" fill="#FFFFFF" d="M0.02,0.48c280.8,0,561.599,0,842.399,0
				c0.001,198.4,0.001,396.8,0.001,595.199c-280.8,0-561.6,0-842.399,0.001C0.021,397.28,0.021,198.88,0.02,0.48z"/>
			<path fill-rule="evenodd" clip-rule="evenodd" fill="#FFFFFF" d="M524.537,194.881c0.287-0.264,0.337-0.348,0.406-0.369
				c3.418-1.024,3.628-1.233,3.968-4.891c0.14-1.509,0.063-3.037,0.131-4.554c0.043-0.968-0.416-1.573-1.306-1.709
				c-1.651-0.253-3.33-0.329-4.979-0.597c-1.314-0.214-2.7-0.396-3.88-0.958c-2.883-1.372-5.689-2.912-8.482-4.465
				c-3.587-1.995-6.778-4.476-9.518-7.582c-3.882-4.401-8.339-8.16-13.364-11.223c-4.091-2.494-7.455-5.739-10.109-10.079
				c-0.337,0.758-0.601,1.284-0.809,1.83c-0.655,1.716-1.171,3.497-1.957,5.149c-1.44,3.024-1.974,6.221-2.215,9.509
				c-0.517,7.036-0.497,14.072,0.367,21.07c0.617,4.989,1.549,9.941,2.377,14.903c0.372,2.229,1.333,3.076,3.901,3.537
				c3.379,0.606,6.819,0.965,10.132,1.822c4.73,1.224,8.631,3.722,10.633,8.479c0.153,0.366,0.304,0.742,0.385,1.129
				c0.306,1.457,0.021,1.964-1.478,2.05c-3.429,0.196-6.866,0.391-10.299,0.365c-5.675-0.043-11.347-0.34-17.021-0.364
				c-2.232-0.009-4.052-0.6-5.588-2.208c-4.461-4.67-9.719-8.287-15.299-11.471c-0.832-0.475-1.68-0.942-2.445-1.512
				c-2.992-2.229-4.953-5.097-4.599-8.962c1.046-11.415-2.252-21.859-7.225-31.844c-3.489-7.006-4.17-14.356-3.691-21.932
				c0.107-1.704,0.774-3.416,1.416-5.032c0.822-2.075,1.931-4.035,2.808-6.092c0.331-0.775,0.553-1.695,0.485-2.521
				c-0.181-2.203-2.043-3.331-4.14-2.587c-0.745,0.264-1.474,0.635-2.131,1.076c-6.839,4.586-13.667,9.188-20.484,13.805
				c-1.801,1.22-2.492,3.012-2.579,5.139c-0.214,5.263,0.968,10.317,2.179,15.375c1.732,7.235,3.063,14.541,3.686,21.96
				c0.268,3.191,0.348,6.369-0.682,9.502c-0.266,0.81-0.117,1.973,0.286,2.741c0.962,1.838,2.233,3.426,4.138,4.528
				c2.366,1.368,4.808,2.222,7.46,2.964c4.268,1.194,8.378,3.107,12.362,5.1c2.949,1.475,3.633,4.063,2.479,6.659
				c-0.402,0.906-0.967,1.409-1.989,1.396c-8.707-0.111-17.388,1.213-26.123,0.311c-3.235-0.334-6.547-0.059-9.814,0.111
				c-1.675,0.087-3.221-0.093-4.56-1.069c-4.133-3.016-8.261-6.042-12.318-9.159c-2.079-1.597-2.895-3.991-3.325-6.471
				c-0.3-1.728-0.508-3.494-0.523-5.245c-0.064-7.515-2.698-13.935-8.23-19.014c-6.239-5.729-12.654-11.266-18.924-16.961
				c-1.222-1.109-2.343-2.444-3.138-3.881c-1.504-2.72-3.048-5.488-4.011-8.421c-1.394-4.247-4.409-6.915-7.919-9.557
				c-0.579,0.567-1.159,1.088-1.686,1.659c-7.059,7.65-13.197,16.043-19.552,24.261c-0.829,1.072-1.587,2.219-2.228,3.412
				c-2.327,4.337-5.179,8.252-8.863,11.548c-0.649,0.58-1.24,1.271-1.699,2.008c-1.388,2.229-3.439,3.513-5.852,4.325
				c-1.362,0.458-2.731,0.896-4.094,1.351c-2.197,0.733-3.771,2.191-4.412,4.394c-0.779,2.675-1.395,5.404-1.926,8.14
				c-0.137,0.705,0.144,1.616,0.516,2.271c1.311,2.304,3.083,3.997,5.904,4.413c3.136,0.461,5.868,2.044,8.571,3.59
				c0.648,0.371,1.237,1.075,1.546,1.764c0.709,1.585,1.229,3.255,1.8,4.821c-1.109,1.241-2.328,1.497-3.633,1.506
				c-7.357,0.051-14.716,0.207-22.07,0.083c-2.685-0.045-5.362-0.739-8.036-1.183c-1.142-0.189-1.69-1.043-2.146-2.048
				c-1.352-2.979-2.742-5.942-4.174-8.883c-1.82-3.739-3.615-7.477-4.609-11.55c-0.301-1.233-0.782-2.442-1.331-3.59
				c-1.694-3.544-1.229-6.917,1.583-9.446c3.368-3.028,4.69-6.866,5.9-10.979c2.706-9.191,5.584-18.332,8.492-27.461
				c0.725-2.273,1.772-4.452,2.768-6.63c3.04-6.652,5.192-13.549,6.307-20.801c0.519-3.377,1.546-6.679,2.367-10.009
				c0.955-3.873,2.011-7.724,2.876-11.616c0.525-2.361,1.307-4.377,3.616-5.604c0.949-0.505,1.757-1.408,2.426-2.285
				c3.588-4.7,7.16-9.416,10.632-14.202c1.07-1.476,1.771-3.214,2.71-4.791c0.937-1.571,1.722-3.33,2.985-4.593
				c6.382-6.383,12.562-13.006,19.819-18.438c5.055-3.785,10.209-7.44,15.392-11.049c3.484-2.426,7.188-4.404,11.375-5.49
				c3.703-0.96,7.295-2.344,10.956-3.477c3.705-1.146,7.468-1.469,11.366-1.1c9.547,0.905,19.105,1.725,28.674,2.355
				c5.181,0.341,10.394,0.186,15.589,0.332c1.669,0.047,3.394,0.115,4.982,0.563c5.187,1.461,10.441,2.408,15.827,2.433
				c6.149,0.028,12.306,0.07,18.445-0.206c2.427-0.109,4.9-0.828,7.203-1.675c4.637-1.708,9.356-1.913,14.178-1.433
				c0.318,0.032,0.638,0.092,0.955,0.088c4.847-0.065,9.525,0.821,14.104,2.378c1.123,0.382,2.336,0.588,3.521,0.673
				c1.982,0.142,3.756,0.664,5.237,2.052c1.122,1.053,2.529,1.274,4.01,1.27c3.839-0.013,7.682,0.082,11.518-0.027
				c3.71-0.105,7.355,0.272,10.921,1.215c1.811,0.479,3.471,0.342,5.146-0.324c1.781-0.708,3.568-1.406,5.322-2.178
				c3.055-1.344,5.445,0.241,7.733,1.848c0.556,0.39,0.691,1.549,0.784,2.38c0.084,0.767-0.149,1.569-0.245,2.372
				c1.539,1.316,3.151,1.669,5.133,1.248c1.938-0.412,3.961-0.521,5.951-0.557c2.541-0.046,4.173,1.29,4.684,3.858
				c0.419,2.107,0.683,4.259,0.823,6.404c0.091,1.4,0.571,2.36,1.701,3.215c1.382,1.046,2.731,2.209,3.831,3.539
				c1.659,2.009,3.517,3.646,5.866,4.823c1.848,0.925,3.579,2.104,5.299,3.265c3.003,2.025,4.885,4.826,6.35,8.182
				c3.54,8.107,8.24,15.401,16.487,19.583c2.149,1.09,2.826,2.924,3.127,5.038c0.07,0.497-0.131,1.104-0.382,1.565
				c-2.224,4.081-4.807,7.891-8.034,11.282c-1.466,1.541-2.63,3.4-3.77,5.216c-1.606,2.56-4.08,3.725-6.958,2.8
				c-3.038-0.976-6.004-2.18-9.006-3.27c-2.545-0.924-5.096-1.834-7.649-2.736c-0.752-0.266-1.541-0.433-2.278-0.731
				c-6.66-2.689-13.324-5.37-19.96-8.119c-2.026-0.839-3.993-1.244-6.254-1.116c-2.429,0.138-4.911-0.431-7.352-0.812
				c-3.196-0.499-6.314-0.542-9.449,0.498c-2.357,0.782-4.714,1.446-6.721,3.023c-2.137,1.68-3.501,3.692-3.459,6.506
				c0.019,1.199-0.07,2.399-0.047,3.598c0.075,3.718-0.979,7.065-3.024,10.173c-1.228,1.863-2.292,3.844-3.308,5.833
				c-1.767,3.463-1.335,6.592,0.993,9.834c6.97,9.704,14.926,18.567,22.83,27.483c1.38,1.556,2.764,3.108,4.176,4.634
				c1.386,1.496,2.021,3.229,1.82,5.263c-0.439,4.454-0.685,8.937-1.362,13.354c-0.975,6.351-2.895,12.442-6.219,18.001
				c-1.873,3.133-4.884,4.758-8.277,5.703c-0.606,0.169-1.463-0.029-2.03-0.357c-1.733-1.001-3.334-4.635-2.694-6.513
				c0.605-1.779,0.082-3.07-0.947-4.418C525.579,197.342,524.523,196.383,524.537,194.881z"/>
			<path fill-rule="evenodd" clip-rule="evenodd" fill="#FFFFFF" d="M427.053,449.274c0.729-0.658,1.336-1.161,1.892-1.716
				c12.055-12.042,24.117-24.076,36.123-36.167c0.795-0.8,1.56-0.952,2.536-0.95c4.96,0.011,9.921-0.042,14.88,0.032
				c1.478,0.022,2.524-0.438,3.583-1.477c5.072-4.977,2.649-4.047,9.954-4.05c67.758-0.026,135.515-0.017,203.271-0.017
				c3.706,0,3.704,0.002,3.704-3.646c0-52.798,0-105.596,0-158.393c0.001-3.662,0.002-3.66-3.689-3.659
				c-13.68,0.003-27.358,0.006-41.038,0.003c-0.543,0-1.086-0.059-2.12-0.12c1.557-2.218,3.362-3.717,5.024-5.313
				c1.727-1.658,3.601-3.163,5.948-5.201c14.94,0,30.848,0,46.668,0c0.147,0.128,0.212,0.177,0.267,0.235
				c0.052,0.057,0.125,0.12,0.133,0.187c0.058,0.472,0.144,0.946,0.144,1.418c-0.011,61.437-0.028,122.874-0.055,184.311
				c0,0.222-0.142,0.442-0.327,0.987c-0.769,0-1.615,0-2.463,0c-67.597,0-135.194-0.001-202.791-0.001
				c-7.04,0-14.08,0.054-21.119-0.033c-1.907-0.024-3.285,0.563-4.636,1.917c-17.105,17.165-34.261,34.278-51.406,51.403
				c-1.075,1.074-2.183,2.115-3.251,3.196c-0.779,0.788-1.464,0.774-2.243-0.032c-1.278-1.322-2.622-2.58-3.926-3.879
				c-11.615-11.576-23.226-23.157-34.842-34.732c-5.44-5.42-10.915-10.805-16.315-16.264c-1.102-1.113-2.255-1.615-3.811-1.596
				c-4.879,0.06-9.759,0.02-14.639,0.02c-71.517,0.001-143.034,0.001-214.551,0.001c-0.782,0-1.563,0-2.29,0
				c-0.53-2.121-0.58-184.723-0.051-187.214c0.725,0,1.505,0,2.285,0c15.839,0,31.679,0.016,47.518-0.027
				c1.45-0.004,2.465,0.344,3.487,1.472c2.305,2.545,4.831,4.892,7.256,7.33c0.43,0.433,0.81,0.916,1.564,1.778
				c-1.206,0.07-1.952,0.151-2.699,0.151c-14.959,0.006-29.919,0.003-44.878,0.002c-3.51,0-3.511,0.001-3.511,3.408
				c0,52.958,0,105.916,0,158.874c0,0.16-0.002,0.32-0.001,0.48c0.018,2.79,0.145,2.933,3.028,2.934
				c17.119,0.007,34.238,0.003,51.358,0.003c53.357-0.001,106.715,0.008,160.073-0.042c1.936-0.001,3.495,0.437,4.599,1.982
				c2.167,3.034,5.027,3.937,8.699,3.646c3.975-0.314,7.995-0.032,11.994-0.094c1.209-0.019,2.015,0.359,2.889,1.238
				c12.233,12.308,24.52,24.562,36.798,36.825C426.292,448.706,426.557,448.879,427.053,449.274z"/>
			<path fill-rule="evenodd" clip-rule="evenodd" fill="#FFFFFF" d="M521.58,367.018c-3.899,0-7.689,0-11.699,0
				c0-21.439,0-42.764,0-64.087c-0.158-0.012-0.315-0.022-0.473-0.034c-2.744,21.356-5.487,42.712-8.24,64.146
				c-4.043,0-7.854,0-11.911,0c-2.968-21.126-5.928-42.201-8.889-63.277c-0.128,0.008-0.255,0.017-0.383,0.024
				c0,21.009,0,42.018,0,63.194c-3.675,0-7.148,0-10.622,0c-0.454-1.728-0.588-90.993-0.119-94.303c5.609,0,11.244,0,17.196,0
				c3,21.711,6.003,43.437,9.006,65.161c0.142,0.007,0.282,0.014,0.424,0.021c2.772-21.662,5.545-43.323,8.312-64.938
				c1.833-0.496,14.448-0.608,17.398-0.161C521.58,304.121,521.58,335.501,521.58,367.018z"/>
			<path fill-rule="evenodd" clip-rule="evenodd" fill="#FFFFFF" d="M174.381,272.664c4.112,0,8.067,0,12.221,0
				c1.083,12.093,2.152,24.09,3.235,36.086c1.077,11.933,2.169,23.864,3.626,35.818c1.944-23.882,3.888-47.763,5.858-71.97
				c3.927-0.164,7.797-0.073,12.018-0.042c1.242,12.118,2.055,24.193,3.137,36.24c1.079,12.009,1.981,24.034,3.406,36.063
				c2.081-24,4.162-48,6.257-72.166c3.677,0,7.225,0,10.958,0c-2.96,31.504-5.911,62.892-8.868,94.36c-5.569,0-10.911,0-16.571,0
				c-0.933-7.887-1.487-15.82-2.238-23.731c-0.748-7.873-1.427-15.752-2.334-23.646c-0.901,5.096-1.213,10.255-1.666,15.398
				c-0.47,5.332-0.957,10.663-1.451,15.994c-0.486,5.242-0.99,10.483-1.517,16.04c-5.674,0.086-11.306,0.053-17.193,0.012
				C180.297,335.604,177.347,304.215,174.381,272.664z"/>
			<path fill-rule="evenodd" clip-rule="evenodd" fill="#FFFFFF" d="M662.217,367.018c-4.231,0-8.359,0-12.789,0
				c-4.96-21.923-9.936-43.911-14.91-65.898c-0.137,0.016-0.273,0.032-0.409,0.049c0,21.863,0,43.726,0,65.908
				c-1.98,0.027-3.781,0.063-5.582,0.075c-1.833,0.013-3.667,0.003-5.46,0.003c-0.541-1.804-0.737-90.214-0.25-94.267
				c1.762-0.462,12.928-0.549,15.639-0.085c4.057,17.964,8.13,36.007,12.204,54.05c0.153-0.013,0.306-0.025,0.458-0.037
				c0-17.989,0-35.979,0-54.133c3.832,0,7.387,0,11.1,0C662.217,304.117,662.217,335.499,662.217,367.018z"/>
			<path fill-rule="evenodd" clip-rule="evenodd" fill="#FFFFFF" d="M400.015,367.082c0-31.56,0-62.875,0-94.213
				c0.265-0.121,0.473-0.299,0.681-0.299c7.115,0.013,14.239-0.167,21.344,0.129c6.975,0.291,11.804,3.958,14.377,10.5
				c1.425,3.622,1.971,7.408,1.977,11.266c0.026,16.874,0.055,33.747-0.031,50.62c-0.015,2.692-0.365,5.438-0.983,8.061
				c-2.075,8.812-7.031,13.31-16.004,13.853C414.371,367.421,407.322,367.082,400.015,367.082z"/>
			<path fill-rule="evenodd" clip-rule="evenodd" fill="#FFFFFF" d="M301.133,319.868c-0.002,8.396,0,16.792-0.002,25.188
				c0,3.699-0.43,7.335-1.613,10.857c-2.597,7.73-8.041,11.872-16.194,12.328c-9.492,0.531-16.257-4.135-18.788-13.285
				c-0.822-2.972-1.349-6.126-1.372-9.202c-0.128-17.352-0.088-34.704-0.041-52.057c0.011-3.772,0.63-7.489,1.997-11.031
				c3.223-8.345,10.103-11.99,18.823-11.289c11.152,0.896,15.095,8.49,16.487,15.917c0.468,2.498,0.483,5.08,0.7,7.624
				c0.021,0.238,0.004,0.479,0.004,0.719C301.134,303.715,301.134,311.791,301.133,319.868z"/>
			<path fill-rule="evenodd" clip-rule="evenodd" fill="#FFFFFF" d="M331.07,319.788c0-8.477-0.009-16.952,0.004-25.429
				c0.006-3.941,0.541-7.794,1.915-11.519c3.148-8.533,10.31-12.183,18.932-11.459c10.576,0.888,14.492,7.699,16.081,14.34
				c0.663,2.774,1.036,5.685,1.052,8.537c0.095,17.032,0.061,34.064,0.036,51.098c-0.006,3.857-0.551,7.656-1.914,11.285
				c-2.687,7.155-7.822,11.129-15.505,11.53c-2.053,0.107-4.167-0.021-6.188-0.394c-5.604-1.031-9.478-4.372-11.852-9.49
				c-1.921-4.142-2.548-8.552-2.556-13.069C331.061,336.741,331.071,328.265,331.07,319.788z"/>
			<path fill-rule="evenodd" clip-rule="evenodd" fill="#FFFFFF" d="M579.296,350.042c-5.122,0-10.125,0-15.309,0
				c-0.734,5.649-1.462,11.249-2.205,16.966c-3.807,0-7.438,0-11.061,0c-0.275-1.86,11.49-90.66,12.501-94.349
				c5.926,0,11.892,0,18.19,0c4.233,31.38,8.467,62.763,12.725,94.331c-4.265,0-8.366,0-12.643,0
				C580.763,361.345,580.037,355.753,579.296,350.042z"/>
			<path fill-rule="evenodd" clip-rule="evenodd" fill="#FFFFFF" d="M483.402,229.021c-0.295,0.402-0.547,0.857-0.9,1.211
				c-2.369,2.381-4.833,4.673-7.113,7.135c-1.31,1.414-2.722,1.909-4.63,1.904c-21.758-0.057-43.516-0.037-65.274-0.037
				c-7.759,0-15.519-0.035-23.278,0.027c-1.641,0.013-2.876-0.441-4.022-1.642c-2.485-2.602-5.099-5.08-7.645-7.624
				c-0.256-0.255-0.409-0.614-0.568-0.86c0.114-0.212,0.14-0.293,0.193-0.35c0.051-0.055,0.129-0.12,0.196-0.12
				c36.95-0.05,73.9-0.095,110.851-0.136c0.557,0,1.116,0.036,1.67,0.091C483.007,228.634,483.117,228.795,483.402,229.021z"/>
			<path fill-rule="evenodd" clip-rule="evenodd" fill="#FFFFFF" d="M127.451,367.98c-2.578,0-5.032,0-7.458,0
				c-0.502-1.847-0.712-86.572-0.22-91.392c2.547-0.125,5.142-0.053,7.624-0.038c0.171,0.17,0.232,0.223,0.284,0.283
				c0.051,0.06,0.132,0.126,0.132,0.19c0.041,29.644,0.077,59.287,0.107,88.93c0,0.397-0.034,0.8-0.103,1.19
				C127.777,367.368,127.635,367.573,127.451,367.98z"/>
			<path fill-rule="evenodd" clip-rule="evenodd" fill="#FFFFFF" d="M729.993,367.997c-2.943,0-5.325,0-8.008,0
				c-0.081-1.117-0.228-2.191-0.228-3.265c-0.013-24.137-0.009-48.272-0.009-72.408c0-4.556-0.006-9.111,0.001-13.667
				c0.002-0.62,0.064-1.239,0.106-1.99c2.657,0,5.181,0,8.031,0c0.254,6.018,0.075,12.051,0.108,18.078
				c0.033,6.074,0.007,12.148,0.007,18.223c0,6.153,0,12.308,0,18.461c0,6.074,0.002,12.148,0,18.222
				C730,355.7,730.014,361.749,729.993,367.997z"/>
			<path fill-rule="evenodd" clip-rule="evenodd" fill="#FFFFFF" d="M496.96,232.533c0-1.319,0-2.499,0-3.842
				c50.593,0,101.091,0,151.781,0c0,1.216,0,2.45,0,3.763c0.017-0.015-0.04,0.041-0.1,0.094c-0.059,0.053-0.115,0.139-0.181,0.147
				c-0.473,0.062-0.947,0.152-1.422,0.152c-49.738-0.004-99.479-0.015-149.217-0.035
				C497.602,232.812,497.382,232.674,496.96,232.533z"/>
			<path fill-rule="evenodd" clip-rule="evenodd" fill="#FFFFFF" d="M205.001,232.675c0-1.365,0-2.604,0-3.997
				c50.548,0,101.025,0,151.645,0c0,1.341,0,2.579,0,3.997C306.143,232.675,255.737,232.675,205.001,232.675z"/>
			<path fill-rule="evenodd" clip-rule="evenodd" fill="#FFFFFF" d="M274.158,501.989c1.792,1.063,3.418,2.025,5.21,3.088
				c-4.716,7.966-9.337,15.772-14.045,23.724c-1.235-0.729-2.25-1.328-3.537-2.089c2.711-4.614,5.358-9.12,8.006-13.627
				c-0.132-0.101-0.264-0.202-0.396-0.303c-3.37,4.102-6.741,8.202-10.2,12.411c-1.214-0.712-2.288-1.342-3.524-2.067
				c2.013-5.252,3.966-10.35,5.919-15.446c-0.133-0.062-0.266-0.123-0.398-0.184c-2.724,4.584-5.448,9.167-8.305,13.975
				c-1.135-0.679-2.124-1.27-3.271-1.954c4.707-7.953,9.334-15.771,14.042-23.726c1.814,1.066,3.443,2.023,5.209,3.061
				c-2.24,5.771-4.417,11.384-6.595,16.995c0.12,0.074,0.24,0.147,0.36,0.222C266.451,511.405,270.268,506.742,274.158,501.989z"/>
			<path fill-rule="evenodd" clip-rule="evenodd" fill="#FFFFFF" d="M632.212,461.395c6.161,6.938,12.142,13.674,18.26,20.564
				c-1.192,1.052-2.241,1.977-3.364,2.966c-5.113-3.343-10.098-6.602-15.081-9.859c-0.131,0.131-0.261,0.262-0.391,0.394
				c1.192,1.386,2.376,2.779,3.58,4.155c1.315,1.502,2.654,2.985,3.977,4.482c1.255,1.421,2.501,2.849,3.884,4.425
				c-1.034,0.911-1.911,1.684-2.93,2.581c-6.125-6.898-12.149-13.683-18.325-20.639c1.401-1.234,2.645-2.328,4.093-3.604
				c4.059,2.651,8.108,5.297,12.158,7.941c0.12-0.107,0.241-0.216,0.361-0.323c-0.785-1.263-1.892-2.296-2.876-3.416
				c-1.003-1.14-2.006-2.279-3.009-3.419c-1.052-1.195-2.104-2.391-3.476-3.948c0.601-0.411,1.134-0.76,1.648-1.134
				C631.164,462.24,631.584,461.889,632.212,461.395z"/>
			<path fill-rule="evenodd" clip-rule="evenodd" fill="#FFFFFF" d="M196.898,478.179c-0.988-0.945-1.95-1.865-3.073-2.94
				c0.863-0.99,1.613-1.902,2.419-2.763c0.874-0.934,1.818-1.801,2.701-2.727c2.185-2.293,2.081-3.376-0.779-5.613
				c-2.405,2.593-4.842,5.221-7.366,7.94c-1.104-1.206-1.995-2.18-2.752-3.007c6.311-6.272,12.744-12.666,19.38-19.262
				c1.679,1.768,3.697,3.688,5.466,5.817c1.387,1.669,1.685,3.767,0.273,5.543c-1.424,1.791-3.08,3.454-4.872,4.874
				c-0.911,0.721-2.344,0.782-3.726,1.197c0.297,2.473-1.209,4.368-3.036,6.146C199.99,474.887,198.535,476.479,196.898,478.179z"/>
			<path fill-rule="evenodd" clip-rule="evenodd" fill="#FFFFFF" d="M443.365,541.913c3.217-0.506,6.213-0.841,9.23-0.472
				c2.052,0.251,3.372,1.62,3.755,3.55c0.4,2.02,0.635,4.134,0.495,6.176c-0.091,1.331-0.979,2.607-1.577,4.074
				c2.01,1.295,2.504,3.567,2.659,6.034c0.14,2.227,0.406,4.446,0.642,6.932c-1.293,0.085-2.657,0.173-4.297,0.279
				c-0.222-1.872-0.43-3.514-0.604-5.159c-0.084-0.793-0.063-1.6-0.162-2.391c-0.376-3-1.212-3.557-4.5-2.885
				c0.248,3.521,0.498,7.071,0.761,10.794c-1.428,0.17-2.67,0.317-4.227,0.503C444.671,560.148,444.032,551.118,443.365,541.913z"/>
			<path fill-rule="evenodd" clip-rule="evenodd" fill="#FFFFFF" d="M551.621,447.114c3.035,3.457,2.743,7.304,1.601,11.145
				c-0.59,1.986-2.367,2.895-4.362,3.308c-4.354,0.9-7.697-1.336-8.192-5.721c-0.342-3.027-0.435-6.104,2.196-8.593
				c-2.584-2.486-2.751-5.545-1.958-8.765c0.599-2.428,2.229-3.851,4.687-4.143c1.247-0.148,2.559-0.112,3.796,0.103
				c1.849,0.322,3.237,1.471,3.833,3.249C554.341,441.041,554.383,444.283,551.621,447.114z"/>
			<path fill-rule="evenodd" clip-rule="evenodd" fill="#FFFFFF" d="M316.928,525.71c-0.267,1.016-0.444,2.129-0.847,3.153
				c-1.784,4.527-3.559,9.062-5.479,13.532c-2.059,4.792-6.727,5.887-10.738,2.604c-1.747-1.429-2.479-3.295-2.002-5.54
				c0.181-0.854,0.429-1.706,0.751-2.518c1.649-4.152,3.327-8.293,5.009-12.433c0.27-0.664,0.557-1.33,0.925-1.942
				c1.241-2.063,2.998-3.397,5.497-3.128c2.64,0.284,4.96,1.31,6.218,3.862C316.604,523.996,316.69,524.817,316.928,525.71z"/>
			<path fill-rule="evenodd" clip-rule="evenodd" fill="#FFFFFF" d="M373.011,559.622c0.482-3.417,1.042-7.443,1.622-11.468
				c0.205-1.42,0.373-2.853,0.707-4.244c0.934-3.89,3.671-5.554,7.756-4.806c3.574,0.655,5.597,3.354,5.151,7.144
				c-0.438,3.721-1.05,7.421-1.591,11.13c-0.208,1.42-0.378,2.849-0.661,4.255c-0.822,4.098-3.253,5.828-7.382,5.316
				C374.85,566.482,372.929,564.187,373.011,559.622z"/>
			<path fill-rule="evenodd" clip-rule="evenodd" fill="#FFFFFF" d="M526.464,450.537c-5.054,2.978-8.426,1.093-8.517-4.558
				c-0.031-1.916-0.061-3.836,0.007-5.751c0.132-3.705,2.176-5.801,5.775-6.021c3.912-0.241,6.199,1.439,6.862,5.099
				c0.156,0.858,0.223,1.744,0.229,2.618c0.03,4.154,0.027,8.309,0.033,12.463c0.001,0.399,0.011,0.801-0.026,1.198
				c-0.464,4.963-4.69,7.501-9.33,5.606c-2.438-0.995-3.653-3.452-3.312-6.872c0.587-0.053,1.202-0.139,1.819-0.154
				c0.552-0.015,1.104,0.049,1.742,0.082c0.141,0.569,0.315,1.094,0.394,1.633c0.176,1.211,0.841,1.864,2.064,1.901
				c1.222,0.037,2.088-0.612,2.221-2.023C526.584,454.101,526.464,452.418,526.464,450.537z"/>
			<path fill-rule="evenodd" clip-rule="evenodd" fill="#FFFFFF" d="M421.321,542.535c2.206,0,4.18,0,6.397,0
				c1.314,9.138,2.617,18.198,3.951,27.469c-1.506,0-2.805,0-4.305,0c-0.273-1.58-0.541-3.125-0.838-4.845c-1.691,0-3.334,0-5.146,0
				c-0.31,1.483-0.63,3.017-0.96,4.599c-1.314,0-2.473,0-3.916,0C418.132,560.563,419.724,551.563,421.321,542.535z"/>
			<path fill-rule="evenodd" clip-rule="evenodd" fill="#FFFFFF" d="M108.191,347.938c0-17.295,0-34.376,0-51.587
				c1.353,0,2.58,0,3.953,0c0,17.216,0,34.289,0,51.587C110.834,347.938,109.616,347.938,108.191,347.938z"/>
			<path fill-rule="evenodd" clip-rule="evenodd" fill="#FFFFFF" d="M742.301,347.923c-1.306,0-2.523,0-3.73,0
				c-0.52-1.723-0.607-49.177-0.076-51.566c1.196,0,2.427,0,3.807,0C742.301,313.5,742.301,330.499,742.301,347.923z"/>
			<path fill-rule="evenodd" clip-rule="evenodd" fill="#FFFFFF" d="M567.809,449.754c-1.267,0-2.362,0-3.797,0
				c0.227-5.149,0.448-10.194,0.676-15.375c3.806,0,7.365,0,11.102,0c0,1.147,0,2.224,0,3.646c-2.306,0-4.649,0-7.192,0
				c-0.119,2.051-0.22,3.772-0.334,5.738c0.729-0.358,1.197-0.621,1.688-0.826c2.951-1.232,6.019,0.144,6.357,3.308
				c0.379,3.544,0.34,7.18,0.03,10.736c-0.236,2.725-2.499,4.258-5.444,4.424c-3.367,0.191-5.506-1.065-6.426-3.802
				c-0.178-0.526-0.351-1.075-0.384-1.623c-0.061-1.024-0.018-2.055-0.018-3.354c1.246-0.055,2.392-0.105,3.76-0.166
				c0.086,1.082,0.112,2.011,0.243,2.924c0.214,1.486,0.862,2.086,2.133,2.09c1.299,0.004,2.014-0.552,2.084-2.079
				c0.108-2.307,0.067-4.628-0.046-6.936c-0.065-1.337-0.791-1.979-1.892-2.057c-1.099-0.076-1.829,0.476-2.223,1.739
				C567.986,448.594,567.939,449.074,567.809,449.754z"/>
			<path fill-rule="evenodd" clip-rule="evenodd" fill="#FFFFFF" d="M597.903,500.018c-1.356,0.854-2.354,1.479-3.517,2.211
				c-0.645-0.95-1.186-1.815-1.795-2.629c-1.029-1.374-1.876-1.623-3.031-0.968c-1.246,0.706-1.581,1.808-0.684,3.274
				c2.667,4.358,5.396,8.68,8.178,12.966c0.943,1.454,2.068,1.64,3.241,0.828c1.089-0.756,1.243-1.678,0.474-3.154
				c-0.294-0.564-0.677-1.083-1.008-1.628c-0.33-0.543-0.647-1.095-1.123-1.901c1.063-0.686,2.095-1.352,3.32-2.142
				c1.362,1.751,2.594,3.487,3.223,5.548c0.847,2.778-0.261,5.19-3.003,6.881c-2.707,1.669-5.359,1.533-7.465-0.492
				c-0.738-0.71-1.364-1.566-1.921-2.433c-2.376-3.694-4.708-7.416-7.052-11.13c-0.255-0.405-0.502-0.817-0.724-1.241
				c-2.242-4.274-0.305-8.512,4.401-9.611c2.109-0.493,4.017-0.061,5.468,1.576C595.934,497.153,596.788,498.505,597.903,500.018z"
				/>
			<path fill-rule="evenodd" clip-rule="evenodd" fill="#FFFFFF" d="M323.649,545.281c0.566,0.126,0.95,0.185,1.317,0.297
				c0.755,0.231,1.501,0.49,2.424,0.794c-0.185,0.912-0.411,1.736-0.51,2.575c-0.169,1.427,0.373,2.235,1.59,2.537
				c1.2,0.298,2.096-0.197,2.616-1.501c0.703-1.765,0.363-3.467-0.459-5.085c-0.795-1.565-1.719-3.065-2.503-4.637
				c-1.495-2.996-1.43-6.004,0.124-8.967c1.592-3.035,4.271-3.998,7.716-2.799c3.252,1.132,4.712,3.571,4.092,6.874
				c-0.13,0.692-0.332,1.372-0.545,2.239c-0.729-0.165-1.331-0.272-1.915-0.442c-0.604-0.175-1.191-0.409-1.925-0.667
				c0.126-0.67,0.288-1.267,0.343-1.873c0.125-1.36-0.319-2.038-1.475-2.37c-1.226-0.354-2.059,0.081-2.597,1.448
				c-0.617,1.568-0.526,3.15,0.208,4.648c0.702,1.433,1.497,2.82,2.271,4.216c1.688,3.047,2.083,6.158,0.567,9.403
				c-1.559,3.337-4.298,4.495-7.918,3.312c-3.512-1.149-5.036-3.837-4.193-7.461C323.071,546.989,323.373,546.181,323.649,545.281z"
				/>
			<path fill-rule="evenodd" clip-rule="evenodd" fill="#FFFFFF" d="M529.877,532.068c-1.074,0.39-2.173,0.789-3.45,1.253
				c-0.352-0.662-0.642-1.283-0.997-1.864c-0.654-1.066-1.561-1.386-2.644-0.984c-1.023,0.38-1.438,1.259-1.186,2.537
				c0.37,1.874,1.561,3.12,3.18,3.972c1.622,0.854,3.309,1.585,4.936,2.432c2.376,1.236,3.981,3.13,4.769,5.72
				c1.548,5.092-1.813,9.219-7.148,8.748c-1.709-0.15-3.073-0.976-3.944-2.397c-0.735-1.199-1.223-2.551-1.929-4.069
				c1.437-0.499,2.601-0.904,3.873-1.347c0.418,0.955,0.71,1.773,1.121,2.527c0.622,1.139,1.438,1.434,2.592,1.051
				c1.159-0.384,1.583-1.063,1.409-2.415c-0.245-1.917-1.45-3.163-3.063-4.025c-1.615-0.864-3.306-1.591-4.932-2.438
				c-3.054-1.592-4.771-4.137-5.26-7.537c-0.377-2.62,0.669-4.743,2.987-5.988C524.752,524.79,528.703,526.695,529.877,532.068z"/>
			<path fill-rule="evenodd" clip-rule="evenodd" fill="#FFFFFF" d="M239.894,508.271c-0.882,1.223-1.525,2.114-2.308,3.198
				c-1.692-1.21-3.235-2.307-4.771-3.412c-1.549-1.116-3.09-2.242-4.84-3.513c5.366-7.459,10.661-14.818,16.111-22.396
				c3.223,2.312,6.306,4.524,9.612,6.896c-0.754,1.065-1.424,2.011-2.256,3.186c-2.045-1.413-3.979-2.748-6.147-4.246
				c-1.467,2.037-2.892,4.017-4.409,6.123c1.592,1.175,3.053,2.254,4.744,3.503c-0.735,1.05-1.398,1.997-2.208,3.152
				c-1.641-1.102-3.19-2.142-4.928-3.309c-1.559,2.16-3.033,4.202-4.631,6.416C235.894,505.354,237.803,506.746,239.894,508.271z"/>
			<path fill-rule="evenodd" clip-rule="evenodd" fill="#FFFFFF" d="M652.711,457.384c1.417-1.548,2.646-2.891,4.026-4.397
				c0.903,1.113,1.645,2.028,2.554,3.15c-1.021,1.1-2.301,2.479-3.374,3.637c1.788,1.99,3.488,3.884,5.321,5.924
				c1.753-1.932,3.354-3.695,5.091-5.609c1.136,1.072,1.985,1.873,3.077,2.903c-2.747,2.878-5.408,5.666-8.183,8.572
				c-6.738-6.432-13.314-12.71-19.972-19.064c2.776-2.909,5.408-5.667,8.173-8.563c1.005,0.949,1.859,1.756,2.867,2.708
				c-1.694,1.81-3.311,3.536-5.116,5.466C648.991,453.839,650.708,455.476,652.711,457.384z"/>
			<path fill-rule="evenodd" clip-rule="evenodd" fill="#FFFFFF" d="M307.667,441.604c-1.332,0-2.491,0-3.742,0
				c-0.111-0.701-0.184-1.322-0.313-1.932c-0.232-1.1-0.947-1.622-2.06-1.593c-1.144,0.031-1.75,0.706-1.935,1.765
				c-0.313,1.797,0.352,3.323,1.541,4.599c1.252,1.342,2.619,2.576,3.919,3.875c2.18,2.178,3.035,4.813,2.703,7.864
				c-0.38,3.488-2.509,5.449-6.039,5.532c-3.536,0.083-5.887-1.767-6.397-5.151c-0.15-1-0.023-2.042-0.023-3.212
				c1.292,0,2.445,0,3.709,0c0.114,0.915,0.163,1.782,0.341,2.622c0.267,1.262,1.02,1.838,2.166,1.785
				c1.139-0.052,1.821-0.707,1.989-1.987c0.236-1.802-0.461-3.302-1.674-4.557c-1.276-1.32-2.687-2.513-3.932-3.86
				c-2.323-2.516-3.224-5.463-2.336-8.846c0.836-3.185,3.07-4.589,6.757-4.281c3.073,0.256,4.966,2.078,5.315,5.162
				C307.727,440.018,307.667,440.661,307.667,441.604z"/>
			<path fill-rule="evenodd" clip-rule="evenodd" fill="#FFFFFF" d="M285.451,434.575c0.049,0.598,0.119,1.06,0.117,1.521
				c-0.001,0.623-0.057,1.245-0.105,2.185c-1.26,0-2.431,0-3.603,0c-1.099,0-2.198,0-3.359,0c-0.099,0.646-0.204,1.023-0.207,1.401
				c-0.017,1.909-0.008,3.818-0.008,6.032c1.982,0,3.767,0,5.698,0c0,1.448,0,2.592,0,3.939c-1.827,0-3.556,0-5.45,0
				c0,2.627,0,5.053,0,7.769c2.246,0,4.511,0,6.919,0c0,1.358,0,2.439,0,3.864c-3.667,0.138-7.362,0.1-11.271,0.098
				c0-9.043,0-17.854,0-26.81C277.88,434.575,281.522,434.575,285.451,434.575z"/>
			<path fill-rule="evenodd" clip-rule="evenodd" fill="#FFFFFF" d="M207.081,487.536c1.236-1.974,2.63-3.271,4.502-4.188
				c4.871-2.385,9.675-4.906,14.5-7.383c0.69-0.354,1.351-0.767,2.313-1.316c-2.022-1.747-3.855-3.332-5.791-5.005
				c0.887-1.048,1.641-1.938,2.543-3.003c3.178,2.69,6.195,5.244,9.275,7.852c-1.138,1.791-2.383,3.118-4.18,4.009
				c-5.002,2.48-9.95,5.068-14.917,7.619c-0.697,0.358-1.38,0.743-2.259,1.219c2.094,1.798,4.014,3.445,6.149,5.277
				c-0.831,0.991-1.572,1.876-2.534,3.024C213.457,492.919,210.321,490.271,207.081,487.536z"/>
			<path fill-rule="evenodd" clip-rule="evenodd" fill="#FFFFFF" d="M618.973,507.842c-1.577-1.606-2.576-3.223-3.061-5.251
				c-1.441-6.036-3.015-12.041-4.627-18.414c-2.167,1.557-4.138,2.972-6.287,4.515c-0.775-1.031-1.515-2.012-2.353-3.125
				c3.288-2.465,6.405-4.803,9.593-7.192c1.658,1.245,2.578,2.821,3.055,4.728c1.431,5.722,2.894,11.436,4.35,17.15
				c0.112,0.443,0.271,0.875,0.516,1.656c2.22-1.623,4.242-3.103,6.483-4.741c0.787,1.038,1.523,2.008,2.385,3.143
				C625.625,502.858,622.383,505.287,618.973,507.842z"/>
			<path fill-rule="evenodd" clip-rule="evenodd" fill="#FFFFFF" d="M490.609,535.388c1.512-0.385,2.864-0.728,4.329-1.101
				c1.954,3.564,3.849,7.021,5.743,10.477c0.168-0.037,0.336-0.075,0.504-0.113c0-3.86,0-7.72,0-11.757
				c1.406-0.402,2.592-0.741,4.067-1.164c0.044,0.887,0.136,1.555,0.102,2.217c-0.223,4.382-0.356,8.774-0.753,13.142
				c-0.272,3.019,0.299,5.859,1.048,8.72c0.337,1.284,0.592,2.59,0.924,4.065c-1.467,0.329-2.683,0.603-4.133,0.929
				c-0.605-2.372-1.111-4.6-1.756-6.787c-0.378-1.284-0.842-2.579-1.497-3.739c-2.393-4.236-4.886-8.417-7.334-12.622
				C491.457,536.972,491.093,536.271,490.609,535.388z"/>
			<path fill-rule="evenodd" clip-rule="evenodd" fill="#FFFFFF" d="M559.197,511.512c1.444-0.745,2.628-1.356,4.004-2.066
				c2.741,2.981,5.422,5.896,8.102,8.812c0.126-0.061,0.252-0.12,0.377-0.181c-0.851-3.829-1.702-7.657-2.606-11.726
				c1.175-0.611,2.269-1.181,3.613-1.881c0.469,2.221,0.917,4.228,1.313,6.245c0.707,3.603,1.325,7.224,2.102,10.811
				c0.282,1.306,0.825,2.576,1.404,3.789c0.953,1.997,2.033,3.934,3.171,6.108c-1.387,0.718-2.553,1.322-3.861,1.999
				c-1.17-2.227-2.186-4.301-3.338-6.295c-0.67-1.161-1.452-2.297-2.371-3.268c-3.295-3.483-6.671-6.89-10.013-10.329
				C560.541,512.963,560.009,512.377,559.197,511.512z"/>
			<path fill-rule="evenodd" clip-rule="evenodd" fill="#FFFFFF" d="M358.135,534.825c-0.909,4.145-1.775,8.092-2.778,12.664
				c2.063-1.373,3.652-2.429,5.373-3.573c0.112,2.48-0.781,3.956-2.686,5.154c-3.799,2.389-3.738,2.49-4.656,6.862
				c-0.112,0.536-0.162,1.085-0.268,1.821c2.243,0.552,4.385,1.078,6.762,1.663c-0.249,1.199-0.484,2.332-0.789,3.8
				c-3.759-0.836-7.367-1.639-11.161-2.482c0.354-1.829,0.666-3.445,1.013-5.243c-0.655,0.252-1.14,0.439-1.8,0.693
				c0.007-1.766,0.086-3.359,1.809-4.28c0.962-0.515,1.216-1.406,1.428-2.36c0.971-4.362,1.951-8.722,2.937-13.08
				c0.191-0.846,0.427-1.682,0.683-2.682C355.42,534.14,356.7,534.463,358.135,534.825z"/>
			<path fill-rule="evenodd" clip-rule="evenodd" fill="#FFFFFF" d="M551.662,519.425c-1.421,0.673-2.629,1.245-4.055,1.921
				c3.03,7.171,6.026,14.26,9.148,21.647c-1.285,0.56-2.482,1.081-3.979,1.733c-3.102-7.27-6.146-14.401-9.245-21.664
				c-1.433,0.552-2.674,1.028-4.168,1.603c-0.498-1.187-0.968-2.308-1.51-3.6c4.146-1.761,8.086-3.433,12.271-5.209
				C550.667,517.114,551.148,518.232,551.662,519.425z"/>
			<path fill-rule="evenodd" clip-rule="evenodd" fill="#FFFFFF" d="M472.522,542.75c-1.582,0.205-2.835,0.367-4.245,0.55
				c-0.182-0.61-0.392-1.189-0.52-1.786c-0.116-0.54-0.143-1.1-0.24-1.914c4.271-1.013,8.589-1.454,13.213-2.241
				c0.184,1.368,0.337,2.507,0.51,3.801c-1.409,0.299-2.707,0.575-4.33,0.92c1.211,7.72,2.414,15.384,3.64,23.189
				c-1.496,0.257-2.731,0.469-4.247,0.728C475.042,558.241,473.806,550.637,472.522,542.75z"/>
			<path fill-rule="evenodd" clip-rule="evenodd" fill="#FFFFFF" d="M329.667,434.616c0,1.177,0,2.2,0,3.536
				c-1.297,0.069-2.604,0.14-4.182,0.225c0,7.604,0,15.139,0,22.84c-1.507,0-2.742,0-4.311,0c0-7.532,0-15.067,0-22.771
				c-1.566-0.07-2.818-0.127-4.283-0.192c0-1.159,0-2.305,0-3.637C321.029,434.616,325.212,434.616,329.667,434.616z"/>
			<path fill-rule="evenodd" clip-rule="evenodd" fill="#FFFFFF" d="M501.246,441.013c-1.359-0.153-2.283-0.258-3.305-0.373
				c0-0.886,0-1.657,0-2.611c2.106-0.28,3.884-1.172,4.582-3.481c0.93,0,1.775,0,2.774,0c0,8.894,0,17.708,0,26.67
				c-1.324,0-2.561,0-4.052,0C501.246,454.512,501.246,447.844,501.246,441.013z"/>
			<path fill-rule="evenodd" clip-rule="evenodd" fill="#FFFFFF" d="M290.856,510.751c1.393,0.672,2.578,1.244,3.936,1.899
				c-4.075,8.327-8.052,16.455-12.119,24.768c-1.415-0.697-2.597-1.278-3.918-1.929C282.825,527.172,286.806,519.03,290.856,510.751
				z"/>
			<path fill-rule="evenodd" clip-rule="evenodd" fill="#FFFFFF" d="M341.082,461.117c-1.267,0-2.428,0-3.758,0
				c0-1.337,0-2.57,0-3.96c1.239,0,2.398,0,3.758,0C341.082,458.361,341.082,459.595,341.082,461.117z"/>
			<path fill-rule="evenodd" clip-rule="evenodd" d="M363.207,411.277c-0.866,0.046-1.632,0.121-2.397,0.121
				c-72.713,0.004-145.426,0.003-218.139,0.001c-3.345,0-3.349-0.007-3.349-3.288c-0.001-57.354,0-114.709,0-172.063
				c0-3.188,0.004-3.193,3.152-3.193c13.759-0.002,27.518,0.004,41.276-0.01c1.475-0.002,2.847,0.076,3.549,2.117
				c-5.098,0.412-10.011,0.138-14.912,0.188c-4.879,0.049-9.759,0.011-14.639,0.011c-4.94,0-9.879,0-14.75,0
				c-0.591,2.202-0.6,171.506,0.005,173.862c0.849,0,1.78,0,2.711,0c71.193,0,142.386-0.001,213.579,0.001
				c0.639,0,1.29-0.048,1.916,0.049C362.309,409.244,363.13,409.759,363.207,411.277z"/>
			<path fill-rule="evenodd" clip-rule="evenodd" d="M706.89,409.023c0-58.062,0-115.772,0-173.753
				c-2.762-0.219-5.455-0.078-8.14-0.103c-2.64-0.025-5.279-0.006-7.92-0.006c-2.72,0-5.439,0-8.159,0
				c-2.641,0-5.28,0.024-7.92-0.007c-2.682-0.031-5.375,0.144-8.282-0.149c0.422-1.37,1.132-1.975,2.222-2.123
				c0.551-0.075,1.118-0.028,1.679-0.028c12.319-0.001,24.639-0.001,36.959,0c0.479,0,0.96,0.016,1.439,0.002
				c0.976-0.028,1.503,0.418,1.525,1.41c0.013,0.56,0.017,1.12,0.017,1.68c0.002,57.438,0.002,114.877,0.003,172.316
				c0,0.08,0.001,0.16,0,0.239c-0.021,2.887-0.025,2.899-2.98,2.899c-30.399,0.002-60.799,0.001-91.198,0.001
				c-40.959,0-81.918,0.001-122.877,0.001c-0.784,0-1.568,0-2.392,0c-0.309-1.613,0.582-2.088,1.645-2.302
				c0.694-0.14,1.433-0.074,2.152-0.074c69.838-0.003,139.676-0.002,209.514-0.002C704.966,409.023,705.756,409.023,706.89,409.023z
				"/>
			<path fill-rule="evenodd" clip-rule="evenodd" d="M427.002,455.178c0.671-0.614,1.266-1.121,1.817-1.671
				c12.346-12.301,24.704-24.587,37.002-36.935c1.347-1.353,2.704-2.013,4.623-1.921c2.778,0.135,5.567,0.035,8.398,0.035
				c0.232,1.262-0.618,1.732-1.191,2.308c-5.075,5.097-10.166,10.179-15.256,15.262c-10.913,10.899-21.828,21.798-32.742,32.696
				c-0.283,0.283-0.563,0.567-0.851,0.845c-1.637,1.574-1.708,1.579-3.248,0.047c-14.107-14.04-28.212-28.083-42.322-42.122
				c-2.21-2.198-4.446-4.371-6.654-6.571c-0.551-0.549-1.04-1.16-1.737-1.945c0.689-0.244,1.095-0.508,1.503-0.513
				c2.877-0.031,5.757,0.044,8.632-0.029c1.298-0.033,2.058,0.699,2.853,1.494c5.596,5.594,11.192,11.188,16.79,16.779
				c6.843,6.834,13.687,13.667,20.535,20.496C425.71,453.988,426.297,454.514,427.002,455.178z"/>
			<path fill-rule="evenodd" clip-rule="evenodd" d="M412.749,286.065c2.561,0,5.036-0.083,7.503,0.024
				c2.282,0.1,3.98,1.287,4.698,3.478c0.466,1.42,0.829,2.951,0.834,4.434c0.057,17.186,0.039,34.373,0.03,51.559
				c-0.001,0.716-0.045,1.442-0.171,2.146c-0.763,4.278-2.648,5.855-7.03,5.896c-1.905,0.018-3.811,0.003-5.649,0.003
				C412.402,351.723,412.22,290.039,412.749,286.065z"/>
			<path fill-rule="evenodd" clip-rule="evenodd" d="M288.543,319.943c0,8.709,0.048,17.42-0.041,26.128
				c-0.018,1.719-0.369,3.499-0.918,5.133c-0.834,2.479-2.836,3.522-5.406,3.547c-2.583,0.025-4.595-1.044-5.47-3.475
				c-0.61-1.694-0.984-3.571-0.992-5.369c-0.071-17.419-0.068-34.839-0.003-52.258c0.006-1.723,0.358-3.512,0.909-5.149
				c0.832-2.473,2.955-3.752,5.597-3.675c2.531,0.074,4.573,1.11,5.387,3.611c0.535,1.64,0.879,3.418,0.896,5.138
				C288.591,302.363,288.543,311.153,288.543,319.943z"/>
			<path fill-rule="evenodd" clip-rule="evenodd" d="M356.529,319.959c0,8.47,0.045,16.939-0.036,25.409
				c-0.018,1.81-0.29,3.677-0.812,5.406c-0.819,2.716-2.792,3.966-5.6,3.975c-2.822,0.009-4.756-1.239-5.647-3.925
				c-0.446-1.342-0.74-2.804-0.744-4.213c-0.048-17.898-0.048-35.798,0.003-53.696c0.004-1.407,0.316-2.868,0.772-4.206
				c0.898-2.634,2.955-3.942,5.695-3.894c2.669,0.047,4.686,1.299,5.467,3.856c0.551,1.802,0.843,3.75,0.863,5.637
				C356.579,302.858,356.529,311.408,356.529,319.959z"/>
			<path fill-rule="evenodd" clip-rule="evenodd" d="M577.417,336.866c-4.01,0-7.812,0-11.816,0
				c1.925-15.276,3.829-30.39,5.739-45.55C572.373,292.56,577.053,333.244,577.417,336.866z"/>
			<path fill-rule="evenodd" clip-rule="evenodd" d="M380.249,233.221c2.402-0.547,90.995-0.479,92.803,0.051
				c-0.347,1.084-0.979,1.774-2.153,1.861c-0.558,0.041-1.12,0.027-1.68,0.027c-28.399,0.001-56.799,0-85.198,0.005
				C382.499,235.166,380.945,235.29,380.249,233.221z"/>
			<path fill-rule="evenodd" clip-rule="evenodd" d="M207.223,455.411c0.62,0.587,1.097,0.996,1.524,1.451
				c0.835,0.893,0.872,1.891,0.087,2.786c-0.938,1.072-1.925,2.124-3.013,3.039c-1.108,0.934-2.044,0.831-3.203-0.123
				c-0.364-0.3-0.66-0.684-1.199-1.251C203.195,459.312,205.164,457.513,207.223,455.411z"/>
			<path fill-rule="evenodd" clip-rule="evenodd" d="M448.61,553.525c-0.189-2.6-0.382-5.24-0.588-8.062
				c0.904-0.084,1.589-0.187,2.275-0.2c1.005-0.021,1.73,0.503,1.88,1.475c0.24,1.563,0.491,3.154,0.435,4.723
				C452.547,553.23,451.488,553.729,448.61,553.525z"/>
			<path fill-rule="evenodd" clip-rule="evenodd" d="M549.703,453.656c-0.079,0.812-0.076,1.622-0.253,2.392
				c-0.264,1.151-1.057,1.758-2.26,1.734c-1.087-0.021-1.978-0.551-2.073-1.617c-0.156-1.731-0.174-3.498-0.009-5.227
				c0.098-1.028,0.974-1.624,2.068-1.647c1.215-0.027,1.983,0.644,2.253,1.762C549.632,451.896,549.62,452.791,549.703,453.656z"/>
			<path fill-rule="evenodd" clip-rule="evenodd" d="M549.661,441.768c-0.091,0.673-0.103,1.403-0.301,2.078
				c-0.303,1.028-1.09,1.544-2.159,1.546c-1.073,0.003-1.972-0.517-2.133-1.55c-0.203-1.313-0.212-2.688-0.065-4.011
				c0.128-1.156,0.993-1.761,2.197-1.763c1.207-0.002,1.951,0.609,2.209,1.766C549.547,440.45,549.577,441.09,549.661,441.768z"/>
			<path fill-rule="evenodd" clip-rule="evenodd" d="M309.63,523.618c2.03-0.052,3.025,1.106,2.727,2.625
				c-0.076,0.387-0.223,0.765-0.371,1.133c-1.751,4.352-3.509,8.7-5.267,13.049c-0.089,0.221-0.188,0.438-0.298,0.649
				c-0.79,1.512-1.553,1.906-2.815,1.462c-1.358-0.478-1.862-1.467-1.237-3.077c1.87-4.815,3.807-9.606,5.815-14.365
				C308.475,524.402,309.305,523.938,309.63,523.618z"/>
			<path fill-rule="evenodd" clip-rule="evenodd" d="M383.873,546.111c-0.695,4.703-1.4,9.743-2.207,14.769
				c-0.277,1.727-1.207,2.384-2.553,2.146c-1.319-0.232-1.991-1.19-1.764-2.895c0.651-4.887,1.382-9.764,2.084-14.645
				c0.023-0.156,0.076-0.309,0.119-0.462c0.439-1.601,1.187-2.233,2.432-2.06C383.347,543.155,383.977,544.083,383.873,546.111z"/>
			<path fill-rule="evenodd" clip-rule="evenodd" d="M522.224,442.866c0-0.872-0.05-1.748,0.012-2.615
				c0.103-1.463,0.733-2.083,2.025-2.112c1.298-0.029,2.059,0.535,2.159,1.993c0.135,1.97,0.144,3.962,0.022,5.933
				c-0.085,1.392-0.969,2.084-2.156,2.054c-1.198-0.029-1.939-0.76-2.042-2.163c-0.075-1.024-0.015-2.06-0.015-3.089
				C522.228,442.866,522.226,442.866,522.224,442.866z"/>
			<path fill-rule="evenodd" clip-rule="evenodd" d="M424.428,549.007c0.525,3.978,1.051,7.955,1.596,12.072
				c-1.428,0-2.589,0-4.03,0c0.67-4.104,1.315-8.063,1.962-12.021C424.112,549.04,424.27,549.023,424.428,549.007z"/>
		</g>
	</g>
</g>
</svg>
